<svg xmlns="http://www.w3.org/2000/svg" width="15.661" height="15.395" viewBox="0 0 15.661 15.395">
  <g id="Iconly_Two-tone_Calling" data-name="Iconly/Two-tone/Calling" transform="translate(0.503 0.641)">
    <g id="Calling">
      <path id="Stroke_1" data-name="Stroke 1" d="M.367,1.78C.6,1.387,1.913-.042,2.845,0A1.232,1.232,0,0,1,3.57.388h0a12.663,12.663,0,0,1,1.85,2.5c.183.876-.863,1.382-.543,2.265A7.4,7.4,0,0,0,9.092,9.371c.883.32,1.388-.724,2.265-.542a12.648,12.648,0,0,1,2.5,1.851h0a1.229,1.229,0,0,1,.387.726c.035.982-1.483,2.308-1.779,2.477a2.6,2.6,0,0,1-2.718-.025C6.655,12.568,1.705,7.712.393,4.5A2.6,2.6,0,0,1,.367,1.78Z" transform="translate(0 0)" fill="none" stroke="#fff" stroke-linecap="round" stroke-linejoin="round" stroke-miterlimit="10" stroke-width="1"/>
      <path id="Path" d="M0,0A5.978,5.978,0,0,1,5.281,5.274" transform="translate(9.049 0.188)" fill="none" stroke="#d5e1ff" stroke-linecap="round" stroke-linejoin="round" stroke-miterlimit="10" stroke-width="1.5" opacity="0.4"/>
      <path id="Path-2" data-name="Path" d="M0,0A3.319,3.319,0,0,1,2.623,2.623" transform="translate(9.049 2.845)" fill="none" stroke="#d5e1ff" stroke-linecap="round" stroke-linejoin="round" stroke-miterlimit="10" stroke-width="1.5" opacity="0.4"/>
    </g>
  </g>
</svg>
