<svg xmlns="http://www.w3.org/2000/svg" width="40" height="40" viewBox="0 0 40 40">
  <g id="instagram" transform="translate(0.808 0.5)">
    <circle id="Ellipse_24" data-name="Ellipse 24" cx="19.5" cy="19.5" r="19.5" transform="translate(-0.308)" fill="none" stroke="#2f313f" stroke-width="1"/>
    <path id="Path_2556" data-name="Path 2556" d="M29.195,26.667H25.738V21.253c0-1.291-.024-2.952-1.8-2.952-1.8,0-2.077,1.406-2.077,2.858v5.508H18.406V15.534h3.319v1.521h.046a3.636,3.636,0,0,1,3.274-1.8c3.5,0,4.15,2.306,4.15,5.3v6.107ZM14.507,14.012a2.006,2.006,0,1,1,2.007-2.006,2.006,2.006,0,0,1-2.007,2.006ZM12.776,26.667h3.46V15.534h-3.46Z" transform="translate(-0.5 -0.5)" fill="#2f313f" fill-rule="evenodd"/>
  </g>
</svg>
