<svg xmlns="http://www.w3.org/2000/svg" xmlns:xlink="http://www.w3.org/1999/xlink" width="199" height="59" viewBox="0 0 199 59">
  <defs>
    <clipPath id="clip-path">
      <rect id="Rectangle_187" data-name="Rectangle 187" width="199" height="59" transform="translate(0 0)" fill="none"/>
    </clipPath>
    <linearGradient id="linear-gradient" x1="1.076" y1="0.792" x2="-1.307" y2="0.792" gradientUnits="objectBoundingBox">
      <stop offset="0" stop-color="#ffe000"/>
      <stop offset="0.41" stop-color="#ffbd00"/>
      <stop offset="0.78" stop-color="orange"/>
      <stop offset="1" stop-color="#ff9c00"/>
    </linearGradient>
    <linearGradient id="linear-gradient-2" x1="0.915" y1="1.048" x2="-0.384" y2="0.379" gradientUnits="objectBoundingBox">
      <stop offset="0" stop-color="#00a0ff"/>
      <stop offset="0.01" stop-color="#00a1ff"/>
      <stop offset="0.26" stop-color="#00beff"/>
      <stop offset="0.51" stop-color="#00d2ff"/>
      <stop offset="0.76" stop-color="#00dfff"/>
      <stop offset="1" stop-color="#00e3ff"/>
    </linearGradient>
    <linearGradient id="linear-gradient-3" x1="0.862" y1="0.015" x2="-0.499" y2="-1.746" gradientUnits="objectBoundingBox">
      <stop offset="0" stop-color="#ff3a44"/>
      <stop offset="1" stop-color="#c31162"/>
    </linearGradient>
    <linearGradient id="linear-gradient-4" x1="-0.188" y1="2.739" x2="0.421" y2="1.947" gradientUnits="objectBoundingBox">
      <stop offset="0" stop-color="#32a071"/>
      <stop offset="0.07" stop-color="#2da771"/>
      <stop offset="0.48" stop-color="#15cf74"/>
      <stop offset="0.8" stop-color="#06e775"/>
      <stop offset="1" stop-color="#00f076"/>
    </linearGradient>
  </defs>
  <g id="Layer_2" data-name="Layer 2" transform="translate(0 0)">
    <g id="Layer_1" data-name="Layer 1">
      <g id="Group_410" data-name="Group 410" clip-path="url(#clip-path)">
        <path id="Path_2522" data-name="Path 2522" d="M192.081,0H7.388A7.388,7.388,0,0,0,0,7.388V51.714A7.388,7.388,0,0,0,7.388,59.1H192.081a7.388,7.388,0,0,0,7.388-7.388V7.388A7.388,7.388,0,0,0,192.081,0Z" transform="translate(0 -0.102)" fill="#fff"/>
        <path id="Path_2523" data-name="Path 2523" d="M73,20.6a6.224,6.224,0,0,0-3.49,1.071A6.3,6.3,0,0,0,75.492,32.7a6.206,6.206,0,0,0,2.826-2.327,6.353,6.353,0,0,0,1.053-3.491,6.206,6.206,0,0,0-1.847-4.47,6.335,6.335,0,0,0-2.05-1.367A6.132,6.132,0,0,0,73,20.6Zm0,10.084A3.752,3.752,0,0,1,69.3,28.528a3.8,3.8,0,0,1-.332-2.216,3.694,3.694,0,0,1,.979-2.013,3.8,3.8,0,0,1,6.594,2.586,3.417,3.417,0,0,1-.2,1.422,3.694,3.694,0,0,1-.757,1.237,3.8,3.8,0,0,1-1.182.831,3.324,3.324,0,0,1-1.4.314ZM59.239,20.6a6.334,6.334,0,1,0,2.438,12.19,6.317,6.317,0,0,0,3.86-5.818,5.984,5.984,0,0,0-.443-2.419,6.243,6.243,0,0,0-3.435-3.417,6.039,6.039,0,0,0-2.419-.536Zm0,10.084a3.786,3.786,0,0,1-2.2-.5,3.879,3.879,0,0,1-1.514-1.662,3.8,3.8,0,0,1-.332-2.216,3.9,3.9,0,0,1,.979-2.013,3.858,3.858,0,0,1,6.649,2.586,3.694,3.694,0,0,1-2.142,3.491,3.38,3.38,0,0,1-1.441.314ZM42.856,22.544V25.2h6.39a5.541,5.541,0,0,1-1.478,3.343A6.464,6.464,0,0,1,42.838,30.5a7.092,7.092,0,0,1,0-14.184,6.926,6.926,0,0,1,4.839,1.847l1.847-1.847a9.235,9.235,0,0,0-6.7-2.7,9.789,9.789,0,0,0-7.148,2.715,10.121,10.121,0,0,0-2.216,3.214,9.863,9.863,0,0,0,0,7.665,10.121,10.121,0,0,0,2.216,3.214,9.955,9.955,0,0,0,3.306,2.087,9.715,9.715,0,0,0,3.842.628,8.625,8.625,0,0,0,9.124-8.995,9.714,9.714,0,0,0-.129-1.644Zm66.951,2.069a5.91,5.91,0,0,0-2.069-2.9,5.781,5.781,0,0,0-3.306-1.164,5.984,5.984,0,0,0-2.346.48,5.725,5.725,0,0,0-1.976,1.385,5.947,5.947,0,0,0-1.256,2.032,5.837,5.837,0,0,0-.332,2.383,6.318,6.318,0,0,0,8.367,5.966,6.317,6.317,0,0,0,3.1-2.438l-2.142-1.478a3.934,3.934,0,0,1-1.311,1.274,3.583,3.583,0,0,1-1.847.443,3.047,3.047,0,0,1-1.847-.48,3.158,3.158,0,0,1-1.219-1.422l8.4-3.472Zm-8.57,2.087a3.4,3.4,0,0,1,.185-1.348,3.8,3.8,0,0,1,.683-1.182,3.694,3.694,0,0,1,1.108-.813,3.269,3.269,0,0,1,1.311-.332,2.512,2.512,0,0,1,1.367.332,2.309,2.309,0,0,1,.96,1.016ZM94.4,32.794h2.77V14.325H94.4ZM89.9,22.008h-.111a4.451,4.451,0,0,0-1.5-1.108,4.673,4.673,0,0,0-1.847-.369,6.3,6.3,0,0,0,0,12.578,4.359,4.359,0,0,0,1.847-.369,4.451,4.451,0,0,0,1.5-1.108H89.9v.9a3.232,3.232,0,0,1-3.361,3.694,3.565,3.565,0,0,1-3.177-2.235l-2.4.979A5.929,5.929,0,0,0,86.5,38.668c3.232,0,5.91-1.847,5.91-6.538V20.974H89.9Zm-3.177,8.681a3.807,3.807,0,0,1-2.549-6.409,3.9,3.9,0,0,1,2.549-1.2,3.694,3.694,0,0,1,1.367.351,3.306,3.306,0,0,1,1.108.85,3.354,3.354,0,0,1,.887,2.6,3.694,3.694,0,0,1-.166,1.4,3.509,3.509,0,0,1-.7,1.219,3.361,3.361,0,0,1-1.127.85,3.546,3.546,0,0,1-1.367.332Zm36.034-16.364h-6.63V32.794h2.77v-7h3.86a5.873,5.873,0,0,0,2.327-.388,5.707,5.707,0,0,0,1.995-1.219,6.1,6.1,0,0,0,1.367-1.847,5.855,5.855,0,0,0,.462-2.309,5.763,5.763,0,0,0-.462-2.29,6.1,6.1,0,0,0-1.367-1.847,5.541,5.541,0,0,0-1.995-1.219,5.873,5.873,0,0,0-2.327-.351Zm0,8.865h-3.86v-6.3h3.916a3.121,3.121,0,0,1,2.235.923,2.974,2.974,0,0,1,.683,1.034,3.177,3.177,0,0,1,0,2.419,2.752,2.752,0,0,1-.683,1.016,3.454,3.454,0,0,1-1.016.7,3.417,3.417,0,0,1-1.219.24ZM139.8,20.549a5.1,5.1,0,0,0-4.95,2.826l2.438,1.016a2.623,2.623,0,0,1,1.053-1.053,2.7,2.7,0,0,1,1.459-.3,2.53,2.53,0,0,1,1.053.092,2.456,2.456,0,0,1,.923.48,2.641,2.641,0,0,1,.683.813,2.327,2.327,0,0,1,.3,1v.166a6.206,6.206,0,0,0-2.881-.7c-2.623,0-5.319,1.478-5.319,4.174a4.6,4.6,0,0,0,.425,1.644A4.063,4.063,0,0,0,136,32.056a4.4,4.4,0,0,0,1.478.85,4.3,4.3,0,0,0,1.681.222,4.008,4.008,0,0,0,2.05-.332,4.193,4.193,0,0,0,1.514-1.385h0v1.385h2.66V25.684a5.1,5.1,0,0,0-5.541-5.116Zm-.332,10.121c-.9,0-2.161-.462-2.161-1.57,0-1.478,1.57-1.976,2.955-1.976a5.005,5.005,0,0,1,2.512.609,3.324,3.324,0,0,1-1.071,2.087,3.177,3.177,0,0,1-2.179.868Zm15.7-9.7L152.01,28.99h0l-3.38-8.016h-2.955l4.913,11.192-2.807,6.169h2.881l7.572-17.417Zm-24.841,11.82H133V14.325h-2.678Z" transform="translate(27.678 11.532)" fill="#03153e"/>
        <path id="Path_2527" data-name="Path 2527" d="M32.822,19.3,11.4,31.49a2.438,2.438,0,0,1-2.955,0l-.092.185.111.111a2.438,2.438,0,0,0,2.937-.111L33.007,19.448Z" transform="translate(7.072 16.346)" opacity="0.2" style="isolation: isolate"/>
        <path id="Path_2528" data-name="Path 2528" d="M8.651,26.817A3.029,3.029,0,0,1,8,24.73v.222a2.826,2.826,0,0,0,.7,2.124v-.111Z" transform="translate(6.77 20.945)" opacity="0.12" style="isolation: isolate"/>
        <path id="Path_2529" data-name="Path 2529" d="M28.988,17.881,21.6,22.055l.129.148,7.258-4.119a2.53,2.53,0,0,0,1.071-.85,2.641,2.641,0,0,0,.5-1.274A2.66,2.66,0,0,1,30,17.105,2.77,2.77,0,0,1,28.988,17.881Z" transform="translate(18.294 13.517)" opacity="0.12" style="isolation: isolate"/>
        <g id="Group_419" data-name="Group 419" transform="translate(14.759 10.556)">
          <g id="Group_418" data-name="Group 418" transform="translate(0 0.027)">
            <path id="Path_2524" data-name="Path 2524" d="M24.378,25.213,18.32,19.118v-.443l6.058-6.095h.129L31.766,16.7c2.069,1.164,2.069,3.084,0,4.266l-7.221,4.1Z" transform="translate(0.757 0.072)" fill="url(#linear-gradient)"/>
            <path id="Path_2525" data-name="Path 2525" d="M8.654,6a2.9,2.9,0,0,0-.646,2.124V40.815a2.826,2.826,0,0,0,.646,2.124l.111.111,18.3-18.3V24.3L8.765,6Z" transform="translate(-7.991 -5.501)" fill="url(#linear-gradient-2)"/>
            <path id="Path_2526" data-name="Path 2526" d="M33.032,22.243,26.789,16,8.32,34.469a2.549,2.549,0,0,0,1.514.609,2.383,2.383,0,0,0,1.588-.609Z" transform="translate(-7.712 2.969)" fill="url(#linear-gradient-3)"/>
            <path id="Path_2530" data-name="Path 2530" d="M33.007,18.456,11.4,6.229a2.475,2.475,0,0,0-1.551-.5,2.419,2.419,0,0,0-1.5.5L26.819,24.7Z" transform="translate(-7.687 -5.73)" fill="url(#linear-gradient-4)"/>
          </g>
          <path id="Path_2531" data-name="Path 2531" d="M11.694,6.426,40.506,22.864a2.77,2.77,0,0,1,1.016.776,2.66,2.66,0,0,1,.554,1.145,2.641,2.641,0,0,0-.5-1.274,2.53,2.53,0,0,0-1.071-.85L11.694,6.241C9.662,5.022,8,6,8,8.365v.222C8,6.241,9.662,5.244,11.694,6.426Z" transform="translate(-7.983 -5.715)" fill="#fff" opacity="0.25" style="isolation: isolate"/>
        </g>
        <path id="Path_2532" data-name="Path 2532" d="M60.46,14.465V5.6h1.385l4.3,6.908V5.6h1.145v8.865H66.112L61.605,7.244v7.221Z" transform="translate(51.205 4.743)" fill="#03153e" stroke="#03153e" stroke-miterlimit="10" stroke-width="0.2"/>
        <path id="Path_2533" data-name="Path 2533" d="M52.96,14.465H51.833V6.69H49.34V5.6h6.095V6.69H52.96Z" transform="translate(41.787 4.743)" fill="#03153e" stroke="#03153e" stroke-miterlimit="10" stroke-width="0.2"/>
        <path id="Path_2534" data-name="Path 2534" d="M48,14.465V5.6h1.145v8.865Z" transform="translate(40.653 4.743)" fill="#03153e" stroke="#03153e" stroke-miterlimit="10" stroke-width="0.2"/>
        <path id="Path_2535" data-name="Path 2535" d="M45.89,14.465H44.745V6.69H42.27V5.6h6.15V6.69H45.89Z" transform="translate(35.8 4.743)" fill="#03153e" stroke="#03153e" stroke-miterlimit="10" stroke-width="0.2"/>
        <path id="Path_2536" data-name="Path 2536" d="M43.954,6.69H39.965V9.5h3.694v1.071H39.965v2.807h3.989v1.09H38.82V5.6h5.134Z" transform="translate(32.878 4.743)" fill="#03153e" stroke="#03153e" stroke-miterlimit="10" stroke-width="0.2"/>
        <path id="Path_2537" data-name="Path 2537" d="M62.471,13.407a4.82,4.82,0,0,1-1.5,1,4.562,4.562,0,0,1-3.509,0,4.617,4.617,0,0,1-1.5-1,4.784,4.784,0,0,1,0-6.575,4.58,4.58,0,0,1,1.478-1.016A4.433,4.433,0,0,1,59.295,5.5a4.063,4.063,0,0,1,1.755.332,4.34,4.34,0,0,1,1.5,1,4.746,4.746,0,0,1,.979,1.514,4.488,4.488,0,0,1,.314,1.847,4.137,4.137,0,0,1-.314,1.847,4.543,4.543,0,0,1-1.053,1.367Zm-5.67-.739a3.435,3.435,0,0,0,1.108.739,3.694,3.694,0,0,0,1.311.259,3.435,3.435,0,0,0,1.293-.259,3.232,3.232,0,0,0,1.108-.739,3.694,3.694,0,0,0,0-5.1,3.232,3.232,0,0,0-1.108-.739,3.435,3.435,0,0,0-1.293-.259,3.694,3.694,0,0,0-1.311.259,3.435,3.435,0,0,0-1.108.739,3.8,3.8,0,0,0,0,5.1Z" transform="translate(46.294 4.656)" fill="#03153e" stroke="#03153e" stroke-miterlimit="10" stroke-width="0.2"/>
        <path id="Path_2538" data-name="Path 2538" d="M42.131,10.48a4.156,4.156,0,0,1-.259,1.588,3.879,3.879,0,0,1-.85,1.367,4.1,4.1,0,0,1-1.5,1,4.414,4.414,0,0,1-1.847.314,4.8,4.8,0,0,1-1.847-.332,4.34,4.34,0,0,1-1.5-1,4.71,4.71,0,0,1,0-6.594,4.654,4.654,0,0,1,2.4-1.256,4.6,4.6,0,0,1,2.678.3,3.694,3.694,0,0,1,1.385.979l-.776.794a2.9,2.9,0,0,0-2.419-1.071,3.546,3.546,0,0,0-2.752,1.588,3.583,3.583,0,0,0-.332,3.306,3.546,3.546,0,0,0,1.016,1.367,3.417,3.417,0,0,0,1.533.757,3.316,3.316,0,0,0,3.2-.85A2.789,2.789,0,0,0,41,10.886H37.773V9.8h4.3Z" transform="translate(27.941 4.647)" fill="#03153e" stroke="#03153e" stroke-miterlimit="10" stroke-width="0.2"/>
      </g>
    </g>
  </g>
</svg>
