<svg xmlns="http://www.w3.org/2000/svg" width="40" height="40" viewBox="0 0 40 40">
  <g id="linkedin" transform="translate(0.654 0.5)">
    <circle id="Ellipse_25" data-name="Ellipse 25" cx="19.5" cy="19.5" r="19.5" transform="translate(-0.154)" fill="none" stroke="#2f313f" stroke-width="1"/>
    <g id="Group_460" data-name="Group 460" transform="translate(9.5 9.505)">
      <path id="Path_2557" data-name="Path 2557" d="M10,.006c-2.715,0-3.056.012-4.122.06A7.348,7.348,0,0,0,3.449.531,4.9,4.9,0,0,0,1.678,1.684,4.9,4.9,0,0,0,.525,3.454,7.372,7.372,0,0,0,.06,5.882C.012,6.948,0,7.288,0,10s.012,3.056.06,4.122a7.348,7.348,0,0,0,.465,2.426,4.9,4.9,0,0,0,1.153,1.771,4.9,4.9,0,0,0,1.77,1.153,7.355,7.355,0,0,0,2.427.465C6.941,19.988,7.282,20,10,20s3.055-.012,4.122-.06a7.348,7.348,0,0,0,2.426-.465,5.119,5.119,0,0,0,2.924-2.923,7.355,7.355,0,0,0,.465-2.427c.048-1.066.06-1.407.06-4.122s-.012-3.055-.06-4.122a7.348,7.348,0,0,0-.465-2.426,4.9,4.9,0,0,0-1.153-1.77A4.9,4.9,0,0,0,16.546.53,7.36,7.36,0,0,0,14.119.065C13.052.017,12.712,0,10,0Zm0,1.8c2.67,0,2.985.01,4.04.058a5.524,5.524,0,0,1,1.856.344,3.1,3.1,0,0,1,1.15.748,3.1,3.1,0,0,1,.747,1.15,5.507,5.507,0,0,1,.344,1.856c.048,1.054.058,1.37.058,4.04s-.01,2.985-.058,4.039A5.519,5.519,0,0,1,17.79,15.9a3.3,3.3,0,0,1-1.9,1.9,5.507,5.507,0,0,1-1.856.344c-1.054.049-1.37.059-4.04.059s-2.985-.01-4.039-.059A5.519,5.519,0,0,1,4.1,17.8a3.1,3.1,0,0,1-1.15-.748A3.1,3.1,0,0,1,2.2,15.9a5.519,5.519,0,0,1-.344-1.856C1.811,12.989,1.8,12.673,1.8,10s.01-2.985.059-4.04A5.524,5.524,0,0,1,2.2,4.107a3.1,3.1,0,0,1,.748-1.15A3.1,3.1,0,0,1,4.1,2.21a5.519,5.519,0,0,1,1.856-.344c1.054-.048,1.37-.058,4.04-.058Z" transform="translate(0 -0.005)" fill="#2f313f" fill-rule="evenodd"/>
      <path id="Path_2558" data-name="Path 2558" d="M20,23.335A3.332,3.332,0,1,1,23.329,20,3.332,3.332,0,0,1,20,23.335Zm0-8.465A5.134,5.134,0,1,0,25.13,20,5.134,5.134,0,0,0,20,14.87Zm6.536-.2a1.2,1.2,0,1,1-1.2-1.2,1.2,1.2,0,0,1,1.2,1.2" transform="translate(-10 -10.005)" fill="#2f313f" fill-rule="evenodd"/>
    </g>
  </g>
</svg>
