<svg xmlns="http://www.w3.org/2000/svg" width="15" height="15" viewBox="0 0 404 403.999">
  <g id="Group_2" data-name="Group 2" transform="translate(0 0)">
    <path id="Path_1" data-name="Path 1" d="M21.963,402.378,395.611,215.572a15.174,15.174,0,0,0,0-27.145L21.963,1.622A15.176,15.176,0,0,0,0,15.194V388.806A15.176,15.176,0,0,0,21.963,402.378Z" fill="#f6b94c"/>
    <path id="Path_2" data-name="Path 2" d="M5.068,3.875A14.991,14.991,0,0,0,0,15.194V388.806a14.991,14.991,0,0,0,5.068,11.319L203.193,202Z" fill="#52c1ff"/>
    <path id="Path_3" data-name="Path 3" d="M276.377,128.816,21.963,1.622A15.112,15.112,0,0,0,5.068,3.875L203.193,202Z" fill="#67c7a5"/>
    <path id="Path_4" data-name="Path 4" d="M5.068,400.125a15.112,15.112,0,0,0,16.9,2.253l254.414-127.2L203.193,202Z" fill="#f56c61"/>
  </g>
</svg>
