<svg xmlns="http://www.w3.org/2000/svg" xmlns:xlink="http://www.w3.org/1999/xlink" width="319.657" height="53.383" viewBox="0 0 319.657 53.383">
  <defs>
    <linearGradient id="linear-gradient" x1="1.094" y1="-0.493" x2="0.224" y2="0.738" gradientUnits="objectBoundingBox">
      <stop offset="0" stop-color="#103eaa"/>
      <stop offset="0.216" stop-color="#103eaa"/>
      <stop offset="0.779" stop-color="#103eaa"/>
      <stop offset="1"/>
    </linearGradient>
  </defs>
  <g id="Group_459" data-name="Group 459" transform="translate(4.257 46.405)">
    <path id="Path_1" data-name="Path 1" d="M15.021,1.757l8.35,10.887h-8.6L8.256,2.426h-.07V12.644H1.28V-13.922H11.6A10.349,10.349,0,0,1,18.3-11.879a7.4,7.4,0,0,1,2.537,6.131A8.083,8.083,0,0,1,19.3-.815,6.527,6.527,0,0,1,15.021,1.757ZM8.186-8.637v6.624h.669q4.792,0,4.792-3.312T8.855-8.637ZM30.277.982h7.434A3.334,3.334,0,0,0,36.443-1.08a3.743,3.743,0,0,0-2.361-.793,4.171,4.171,0,0,0-2.484.74A3.3,3.3,0,0,0,30.277.982Zm13.389,3.03v.669H30.172q0,4.017,4.017,4.017a3.317,3.317,0,0,0,3.065-1.656h6.166a7.214,7.214,0,0,1-3.312,4.616,10.983,10.983,0,0,1-5.884,1.586,11.077,11.077,0,0,1-7.558-2.537,8.9,8.9,0,0,1-2.907-7.082A9.208,9.208,0,0,1,26.525-3.44a10.166,10.166,0,0,1,7.24-2.59,9.674,9.674,0,0,1,7.293,2.7A10.12,10.12,0,0,1,43.666,4.012Zm7.4-9.443,4.51,9.795L60.12-5.431h3.805L68.47,4.364l4.545-9.795H80.1L70.655,12.644H66.5l-4.475-9.9-4.475,9.9H53.39L43.948-5.431ZM94.12.735a3.85,3.85,0,0,0-2.995-1.2A3.936,3.936,0,0,0,88.113.717,4.083,4.083,0,0,0,87,3.624a4.006,4.006,0,0,0,1.11,2.907,4.535,4.535,0,0,0,6.025,0,4.006,4.006,0,0,0,1.11-2.907A3.987,3.987,0,0,0,94.12.735Zm7.329-6.166V12.644H95.037V10.636h-.07a4.989,4.989,0,0,1-2.29,1.955,7.778,7.778,0,0,1-3.171.652,8.47,8.47,0,0,1-6.536-2.836,9.758,9.758,0,0,1-2.59-6.818,9.771,9.771,0,0,1,2.554-6.8,8.386,8.386,0,0,1,6.5-2.819,6.957,6.957,0,0,1,5.6,2.361V-5.431Zm10.676,0v2.96h.07a6.192,6.192,0,0,1,5.849-3.206h1.233V.488a5.459,5.459,0,0,0-2.713-.6,3.894,3.894,0,0,0-3.471,1.427,7.137,7.137,0,0,0-.969,4.034v7.293h-6.413V-5.431Zm23.148,18.075V10.636h-.07a4.989,4.989,0,0,1-2.29,1.955,7.779,7.779,0,0,1-3.171.652,8.47,8.47,0,0,1-6.536-2.836,9.758,9.758,0,0,1-2.59-6.818,9.77,9.77,0,0,1,2.554-6.8,8.386,8.386,0,0,1,6.5-2.819,6.957,6.957,0,0,1,5.6,2.361V-16.6h6.413V12.644ZM134.357.735a3.85,3.85,0,0,0-2.995-1.2A3.936,3.936,0,0,0,128.35.717a4.083,4.083,0,0,0-1.11,2.907,4.006,4.006,0,0,0,1.11,2.907,4.535,4.535,0,0,0,6.025,0,4.006,4.006,0,0,0,1.11-2.907A3.987,3.987,0,0,0,134.357.735Zm27.764,7.293h-9.513l-1.832,4.616h-7.329l10.218-26.566h7.54l10.006,26.566h-7.364Zm-1.867-5.285-2.819-8.456h-.07l-2.854,8.456Zm26.566,9.9V10.636h-.07a4.989,4.989,0,0,1-2.29,1.955,7.778,7.778,0,0,1-3.171.652,8.471,8.471,0,0,1-6.536-2.836,9.758,9.758,0,0,1-2.59-6.818,9.77,9.77,0,0,1,2.554-6.8,8.386,8.386,0,0,1,6.5-2.819,6.957,6.957,0,0,1,5.6,2.361V-16.6h6.413V12.644ZM185.9.735a3.85,3.85,0,0,0-2.995-1.2A3.936,3.936,0,0,0,179.9.717a4.083,4.083,0,0,0-1.11,2.907,4.006,4.006,0,0,0,1.11,2.907,4.535,4.535,0,0,0,6.025,0,4.006,4.006,0,0,0,1.11-2.907A3.987,3.987,0,0,0,185.9.735Zm20.224,6.589h7.61v5.32H195.417L203.908-.111h-7.364v-5.32h18.04Z" transform="translate(62.102 -14.984)" fill="#103eaa"/>
    <g id="Group_2" data-name="Group 2" transform="translate(0.083 -40.343)">
      <path id="Path_39" data-name="Path 39" d="M31.692,15.316a10.021,10.021,0,0,1-4.144,3.671,10.278,10.278,0,0,1-2.7.872,10.86,10.86,0,0,1-1.8.084,3.85,3.85,0,0,0-1.131.108.539.539,0,0,0-.333.238.441.441,0,0,0-.01.337.96.96,0,0,0,.205.355c-.075-.072-.189-.183-.327-.322l-.172-.174-.833-.845-.8-.809-.936-.951-1-1.021-1-1.019-.929-.944L15,14.1l-.568-.577-.28-.285-.017-.018L11.066,10.1l2.576,2.591.507.511.039.037a.456.456,0,0,0,.326.137h8.423l.027,0a3.3,3.3,0,0,0,.377.021l.034,0a2.548,2.548,0,0,1,.358-.021A3.34,3.34,0,0,0,26.6,10.145a3.358,3.358,0,0,0-3.322-3.255H8.916a.436.436,0,0,0-.39.63L2.068.956A.047.047,0,0,0,2.057.948,3.355,3.355,0,0,0,0,.079C.2.074.4.074.591.074h.616l.009.009q6.072,0,12.141,0h4.393c2.744,0,5.779-.379,8.434.468a10.172,10.172,0,0,1,5.641,4.434A10.177,10.177,0,0,1,31.692,15.316Z" transform="translate(12.994 0)" fill="url(#linear-gradient)"/>
      <path id="Path_40" data-name="Path 40" d="M46.087,38.413a10.194,10.194,0,0,1-9.553,7.776,9.952,9.952,0,0,1-3.233-.45,10.061,10.061,0,0,1-3.226-1.7,25.462,25.462,0,0,1-2.327-2.331c-.785-.808-1.582-1.6-2.381-2.4-1.625-1.609-3.251-3.219-4.8-4.906a.814.814,0,0,0-.249-.192.428.428,0,0,0-.543.221.8.8,0,0,0-.046.281,21.22,21.22,0,0,1-.153,3.623A9.883,9.883,0,0,1,1.2,40.979,10.259,10.259,0,0,1,.122,37.8a29.92,29.92,0,0,1-.039-4.744c.012-6.532.039-13.064.039-19.6a6.547,6.547,0,0,1,.237-2.116,3.286,3.286,0,0,1,2.27-2.091,3.2,3.2,0,0,1,2.972.813c1.623,1.609,1.135,4.361,1.112,6.411-.03,2.553-.064,5.107-.064,7.66q-.027,4.911-.011,9.822c0,1.359-.265,2.922.491,4.125a3.3,3.3,0,0,0,6.093-1.778V25.771a3.309,3.309,0,0,1,3.032-3.331,3.233,3.233,0,0,1,2.262.714l.018-.02q2.565,2.576,5.132,5.146,2.6,2.6,5.2,5.214c1.557,1.561,3.044,3.21,4.646,4.721a4.305,4.305,0,0,0,3.084,1.415,3.283,3.283,0,0,0,2.585-1.8c1.31-2.537-1.448-4.58-3.028-6.174-1.877-1.892-3.815-3.721-5.669-5.634-2.7-2.786-5.48-5.505-8.219-8.256Q16.6,12.072,10.939,6.391A6.715,6.715,0,0,1,9.7,4.875,3.359,3.359,0,0,1,9.533,2.1,3.294,3.294,0,0,1,11.558.2c.055-.018.109-.034.164-.048A3.394,3.394,0,0,1,12.741,0c.069,0,.137,0,.2.005a3.359,3.359,0,0,1,2.176.98l6.351,6.452a.429.429,0,0,0,.082.112l2.457,2.468.075.076.215.218.338.344.447.454.54.549.617.627.679.69.726.737.756.769.772.784.771.784.756.768.724.736.677.688.615.625.537.546c.223.227.446.453.667.682.416.429.846.843,1.276,1.258s.873.846,1.31,1.268.877.842,1.322,1.257l.007.006C39.031,25,40.279,26.1,41.455,27.2a24.931,24.931,0,0,1,3.018,3.276,9.427,9.427,0,0,1,.651,1l.009.009A9.544,9.544,0,0,1,46.087,38.413Z" transform="translate(0)" fill="#103eaa"/>
    </g>
  </g>
</svg>
