<svg xmlns="http://www.w3.org/2000/svg" xmlns:xlink="http://www.w3.org/1999/xlink" width="199.305" height="36.992" viewBox="0 0 199.305 36.992">
  <defs>
    <linearGradient id="linear-gradient" x1="1.094" y1="-0.493" x2="0.224" y2="0.738" gradientUnits="objectBoundingBox">
      <stop offset="0" stop-color="#fff"/>
      <stop offset="0.216" stop-color="#fff"/>
      <stop offset="0.779" stop-color="#fff"/>
      <stop offset="1"/>
    </linearGradient>
  </defs>
  <g id="Group_462" data-name="Group 462" transform="translate(-21.237 44.567)">
    <g id="Group_1" data-name="Group 1" transform="translate(22.138 -37.428)">
      <path id="Path_39" data-name="Path 39" d="M28.492,13.769a9.009,9.009,0,0,1-3.726,3.3,9.237,9.237,0,0,1-2.424.784,9.762,9.762,0,0,1-1.619.076,3.459,3.459,0,0,0-1.017.1.485.485,0,0,0-.3.214.4.4,0,0,0-.009.3.863.863,0,0,0,.184.319c-.067-.065-.17-.164-.294-.289l-.155-.156-.749-.76-.716-.727-.842-.855-.9-.918-.9-.916-.835-.849-.7-.716-.51-.519-.252-.256-.016-.016-2.758-2.8,2.316,2.329.456.459.035.034a.41.41,0,0,0,.293.123h7.573l.024,0a2.973,2.973,0,0,0,.339.019l.03,0a2.288,2.288,0,0,1,.322-.019,3,3,0,0,0,2.579-2.905,3.019,3.019,0,0,0-2.987-2.926H8.016a.392.392,0,0,0-.35.566L1.859.86a.042.042,0,0,0-.01-.008A3.016,3.016,0,0,0,0,.071c.176,0,.355,0,.531,0h.553l.008.008q5.459,0,10.915,0h3.95c2.467,0,5.2-.341,7.583.421a9.145,9.145,0,0,1,5.071,3.986A9.15,9.15,0,0,1,28.492,13.769Z" transform="translate(9.956 -12.433)" fill="url(#linear-gradient)"/>
      <path id="Path_40" data-name="Path 40" d="M41.433,34.534a9.164,9.164,0,0,1-8.589,6.991,8.947,8.947,0,0,1-2.907-.4,9.046,9.046,0,0,1-2.9-1.528,22.9,22.9,0,0,1-2.092-2.1c-.705-.726-1.422-1.44-2.14-2.153-1.461-1.446-2.923-2.894-4.311-4.41a.732.732,0,0,0-.224-.173.385.385,0,0,0-.488.2.716.716,0,0,0-.042.253,19.08,19.08,0,0,1-.138,3.257A8.886,8.886,0,0,1,1.074,36.841,9.223,9.223,0,0,1,.11,33.984a26.9,26.9,0,0,1-.035-4.265C.086,23.847.11,17.974.11,12.1a5.886,5.886,0,0,1,.213-1.9A2.954,2.954,0,0,1,2.364,8.32a2.88,2.88,0,0,1,2.671.731c1.459,1.446,1.021,3.921,1,5.764-.027,2.3-.058,4.591-.058,6.887q-.024,4.415-.01,8.83c0,1.222-.238,2.627.442,3.708a2.965,2.965,0,0,0,5.477-1.6V23.168a2.975,2.975,0,0,1,2.726-2.995,2.907,2.907,0,0,1,2.033.641l.016-.018q2.306,2.316,4.614,4.626,2.34,2.342,4.674,4.687c1.4,1.4,2.737,2.886,4.177,4.244A3.871,3.871,0,0,0,32.9,35.627,2.951,2.951,0,0,0,35.223,34c1.177-2.281-1.3-4.118-2.723-5.551-1.688-1.7-3.43-3.345-5.1-5.065-2.427-2.505-4.927-4.949-7.389-7.423q-5.087-5.113-10.18-10.22A6.036,6.036,0,0,1,8.716,4.383a3.02,3.02,0,0,1-.146-2.494A2.961,2.961,0,0,1,10.391.184c.05-.016.1-.03.147-.043A3.051,3.051,0,0,1,11.455,0c.062,0,.123,0,.184,0A3.02,3.02,0,0,1,13.6.886l5.709,5.8a.386.386,0,0,0,.074.1l2.209,2.219.068.069.193.2.3.309.4.409.486.493.555.564.611.621.652.663.68.691.694.7.693.705.679.69.651.662.609.619.553.562.483.491c.2.2.4.408.6.613.374.386.761.757,1.147,1.131s.784.761,1.178,1.14.788.757,1.188,1.13l.006.006c1.072,1,2.193,1.993,3.251,2.979A22.418,22.418,0,0,1,39.982,27.4a8.469,8.469,0,0,1,.586.9l.008.008A8.58,8.58,0,0,1,41.433,34.534Z" transform="translate(-1.726 -12.433)" fill="#fff"/>
    </g>
    <path id="Path_1" data-name="Path 1" d="M9.206-6.011,14.023.269H9.064L5.3-5.625H5.264V.269H1.28V-15.055H7.235A5.97,5.97,0,0,1,11.1-13.877,4.27,4.27,0,0,1,12.56-10.34a4.662,4.662,0,0,1-.884,2.845A3.765,3.765,0,0,1,9.206-6.011Zm-3.943-6v3.821H5.65q2.764,0,2.764-1.91T5.65-12.007ZM18.007-6.458H22.3a1.923,1.923,0,0,0-.732-1.189A2.159,2.159,0,0,0,20.2-8.1a2.406,2.406,0,0,0-1.433.427A1.9,1.9,0,0,0,18.007-6.458ZM25.73-4.71v.386H17.946a2.048,2.048,0,0,0,2.317,2.317,1.913,1.913,0,0,0,1.768-.955h3.557A4.161,4.161,0,0,1,23.677-.3a6.335,6.335,0,0,1-3.394.915,6.39,6.39,0,0,1-4.36-1.463,5.135,5.135,0,0,1-1.677-4.085,5.312,5.312,0,0,1,1.6-4.075A5.864,5.864,0,0,1,20.019-10.5a5.581,5.581,0,0,1,4.207,1.555A5.837,5.837,0,0,1,25.73-4.71ZM30-10.157l2.6,5.65,2.622-5.65h2.2l2.622,5.65,2.622-5.65h4.085L41.3.269H38.9L36.319-5.442,33.738.269h-2.4L25.893-10.157ZM54.834-6.6a2.221,2.221,0,0,0-1.728-.691,2.271,2.271,0,0,0-1.738.681,2.355,2.355,0,0,0-.64,1.677,2.311,2.311,0,0,0,.64,1.677,2.308,2.308,0,0,0,1.738.661,2.308,2.308,0,0,0,1.738-.661,2.311,2.311,0,0,0,.64-1.677A2.3,2.3,0,0,0,54.834-6.6Zm4.227-3.557V.269h-3.7V-.889h-.041A2.878,2.878,0,0,1,54,.239a4.487,4.487,0,0,1-1.829.376A4.886,4.886,0,0,1,48.4-1.022a5.629,5.629,0,0,1-1.494-3.933,5.636,5.636,0,0,1,1.473-3.923,4.838,4.838,0,0,1,3.75-1.626,4.013,4.013,0,0,1,3.232,1.362v-1.016Zm6.158,0V-8.45h.041A3.572,3.572,0,0,1,68.634-10.3h.711v3.557a3.149,3.149,0,0,0-1.565-.346,2.246,2.246,0,0,0-2,.823,4.117,4.117,0,0,0-.559,2.327V.269h-3.7V-10.157ZM78.573.269V-.889h-.041A2.878,2.878,0,0,1,77.211.239a4.487,4.487,0,0,1-1.829.376,4.886,4.886,0,0,1-3.77-1.636,5.629,5.629,0,0,1-1.494-3.933,5.636,5.636,0,0,1,1.474-3.923,4.838,4.838,0,0,1,3.75-1.626,4.013,4.013,0,0,1,3.232,1.362V-16.6h3.7V.269ZM78.044-6.6a2.221,2.221,0,0,0-1.728-.691,2.271,2.271,0,0,0-1.738.681,2.355,2.355,0,0,0-.64,1.677,2.311,2.311,0,0,0,.64,1.677,2.308,2.308,0,0,0,1.738.661,2.308,2.308,0,0,0,1.738-.661,2.311,2.311,0,0,0,.64-1.677A2.3,2.3,0,0,0,78.044-6.6ZM94.06-2.393H88.572L87.515.269H83.288l5.894-15.324h4.349L99.3.269H95.056ZM92.983-5.442,91.357-10.32h-.041L89.67-5.442ZM108.307.269V-.889h-.041A2.878,2.878,0,0,1,106.945.239a4.487,4.487,0,0,1-1.829.376,4.886,4.886,0,0,1-3.77-1.636,5.629,5.629,0,0,1-1.494-3.933,5.636,5.636,0,0,1,1.474-3.923,4.838,4.838,0,0,1,3.75-1.626,4.013,4.013,0,0,1,3.232,1.362V-16.6h3.7V.269Zm-.528-6.87a2.221,2.221,0,0,0-1.728-.691,2.271,2.271,0,0,0-1.738.681,2.355,2.355,0,0,0-.64,1.677,2.311,2.311,0,0,0,.64,1.677,2.308,2.308,0,0,0,1.738.661,2.308,2.308,0,0,0,1.738-.661,2.311,2.311,0,0,0,.64-1.677A2.3,2.3,0,0,0,107.779-6.6Zm11.666,3.8h4.39V.269H113.266l4.9-7.357h-4.248v-3.069h10.406Z" transform="translate(70.282 -14.754)" fill="#fff"/>
  </g>
</svg>
