<svg xmlns="http://www.w3.org/2000/svg" width="40" height="40" viewBox="0 0 40 40">
  <g id="twitter" transform="translate(0.5 0.5)">
    <circle id="Ellipse_26" data-name="Ellipse 26" cx="19.5" cy="19.5" r="19.5" fill="none" stroke="#2f313f" stroke-width="1"/>
    <path id="Path_2559" data-name="Path 2559" d="M16.29,27.918A11.6,11.6,0,0,0,27.965,16.243c0-.178,0-.355-.012-.53A8.349,8.349,0,0,0,30,13.587a8.19,8.19,0,0,1-2.357.646,4.118,4.118,0,0,0,1.8-2.27,8.223,8.223,0,0,1-2.6,1A4.107,4.107,0,0,0,19.849,16.7a11.65,11.65,0,0,1-8.457-4.288,4.106,4.106,0,0,0,1.27,5.478,4.073,4.073,0,0,1-1.862-.514v.052a4.1,4.1,0,0,0,3.291,4.023,4.1,4.1,0,0,1-1.852.07,4.108,4.108,0,0,0,3.834,2.85A8.234,8.234,0,0,1,10,26.073a11.617,11.617,0,0,0,6.29,1.84" transform="translate(-0.5 -0.5)" fill="#2f313f"/>
  </g>
</svg>
